<svg xmlns="http://www.w3.org/2000/svg" version="1.1" xmlns:xlink="http://www.w3.org/1999/xlink"
  xmlns:svgjs="http://svgjs.com/svgjs" width="512" height="512" x="0" y="0" viewBox="0 0 24 24"
  style="enable-background:new 0 0 512 512" xml:space="preserve" class=""><g><linearGradient id="a" x1="1" x2="23" y1="12" y2="12" gradientUnits="userSpaceOnUse"><stop offset="0" stop-color="#ee0979"></stop><stop offset="1" stop-color="#ff6a00"></stop></linearGradient><path fill="url(#a)" d="m22.7 6.3-2.5-2.5c-.4-.4-1-.4-1.4 0l-9.3 9.3-4.3-4.3c-.4-.4-1-.4-1.4 0l-2.5 2.5c-.4.4-.4 1 0 1.4l7.5 7.5c.2.2.5.3.7.3s.5-.1.7-.3L22.7 7.7c.4-.4.4-1 0-1.4zM9.5 18.1 3.4 12l1.1-1.1 4.3 4.3c.4.4 1 .4 1.4 0l9.3-9.3L20.6 7z" data-original="url(#a)" class=""></path></g></svg>