<svg xmlns="http://www.w3.org/2000/svg" version="1.1" xmlns:xlink="http://www.w3.org/1999/xlink"
  xmlns:svgjs="http://svgjs.com/svgjs" width="512" height="512" x="0" y="0" viewBox="0 0 24 24"
  style="enable-background:new 0 0 512 512" xml:space="preserve" class=""><g><linearGradient id="a" x1="1" x2="23" y1="12" y2="12" gradientUnits="userSpaceOnUse"><stop offset="0" stop-color="#ee0979"></stop><stop offset="1" stop-color="#ff6a00"></stop></linearGradient><path fill="url(#a)" d="M15.5 8.5c-.4-.4-1-.4-1.4 0L12 10.6 9.9 8.5c-.4-.4-1-.4-1.4 0s-.4 1 0 1.4l2.1 2.1-2.1 2.1c-.4.4-.4 1 0 1.4.2.2.5.3.7.3s.5-.1.7-.3l2.1-2.1 2.1 2.1c.2.2.5.3.7.3s.5-.1.7-.3c.4-.4.4-1 0-1.4L13.4 12l2.1-2.1c.4-.4.4-1 0-1.4zM12 1C5.9 1 1 5.9 1 12s4.9 11 11 11 11-4.9 11-11S18.1 1 12 1zm0 20c-5 0-9-4-9-9s4-9 9-9 9 4 9 9-4 9-9 9z" data-original="url(#a)" class=""></path></g></svg>