<svg xmlns="http://www.w3.org/2000/svg" xmlns:xlink="http://www.w3.org/1999/xlink" version="1.1"
	width="1080" height="1080" viewBox="0 0 1080 1080" xml:space="preserve">
<rect x="0" y="0" width="100%" height="100%" fill="transparent"></rect>
<g transform="matrix(1 0 0 1 540 540)" id="38eaeb9b-ac34-486c-b8b3-9a1164638d7d"  >
<rect style="stroke: none; stroke-width: 1; stroke-dasharray: none; stroke-linecap: butt; stroke-dashoffset: 0; stroke-linejoin: miter; stroke-miterlimit: 4; fill: rgb(255,255,255); fill-rule: nonzero; opacity: 1; visibility: hidden;" vector-effect="non-scaling-stroke"  x="-540" y="-540" rx="0" ry="0" width="1080" height="1080" />
</g>
<g transform="matrix(1 0 0 1 540 540)" id="9048d0f1-e2ee-46ea-aa87-79687d134775"  >
</g>
<g transform="matrix(54 0 0 54 500.91 500.91)"  >
<g style=""   >
		<g transform="matrix(1 0 0 1 0.15 0.72)"  >
<path style="stroke: none; stroke-width: 1; stroke-dasharray: none; stroke-linecap: butt; stroke-dashoffset: 0; stroke-linejoin: miter; stroke-miterlimit: 4; fill: rgb(53,52,50); fill-rule: evenodd; opacity: 1;" vector-effect="non-scaling-stroke"  transform=" translate(-10.15, -10.72)" d="M 16.3079 11.7158 L 4 11.7158 L 4 9.71582 L 16.3079 9.71582 L 16.3079 11.7158 Z" stroke-linecap="round" />
</g>
		<g transform="matrix(1 0 0 1 3.39 0.72)"  >
<path style="stroke: none; stroke-width: 1; stroke-dasharray: none; stroke-linecap: butt; stroke-dashoffset: 0; stroke-linejoin: miter; stroke-miterlimit: 4; fill: rgb(53,52,50); fill-rule: evenodd; opacity: 1;" vector-effect="non-scaling-stroke"  transform=" translate(-13.39, -10.72)" d="M 10.8571 4 L 17.0111 10.0001 C 17.2041 10.1883 17.313 10.4465 17.313 10.7161 C 17.313 10.9857 17.2041 11.2439 17.0111 11.4321 L 10.8571 17.4322 L 9.46094 16.0002 L 14.8805 10.7161 L 9.46094 5.432 L 10.8571 4 Z" stroke-linecap="round" />
</g>
</g>
</g>
</svg>